 <svg version="1.0" xmlns="http://www.w3.org/2000/svg" width="700.000000pt" height="700.000000pt" viewBox="0 0 700.000000 700.000000" preserveAspectRatio="xMidYMid meet">
<metadata>
Created by potrace 1.12, written by Peter Selinger 2001-2015
</metadata>
<g transform="translate(0.000000,700.000000) scale(0.100000,-0.100000)" fill="#000000" stroke="none">
<path d="M2384 5771 c-92 -59 -124 -91 -124 -123 0 -28 14 -21 27 12 7 20 36
45 89 81 104 67 121 73 150 54 24 -15 104 -161 104 -188 0 -26 -39 -49 -121
-73 -91 -26 -130 -30 -161 -13 -25 13 -35 5 -18 -15 23 -28 71 -27 173 3 124
37 147 52 147 94 0 39 -83 203 -110 217 -35 19 -65 10 -156 -49z"></path>
<path d="M3292 5813 c-30 -27 -102 -174 -102 -209 0 -17 8 -38 18 -46 9 -9 66
-30 125 -47 112 -33 154 -34 178 -5 16 20 5 28 -19 15 -31 -17 -71 -13 -162
14 -84 25 -120 47 -120 72 0 27 80 173 104 188 29 19 39 15 145 -52 58 -38 86
-63 94 -83 13 -33 27 -40 27 -12 0 32 -30 61 -123 122 -97 63 -131 72 -165 43z"></path>
<path d="M2219 5577 c-83 -101 -128 -215 -149 -375 -13 -101 -5 -231 14 -238
6 -2 24 0 41 4 l29 8 -3 90 c-5 173 36 325 116 432 24 32 25 37 13 73 -7 21
-18 39 -24 38 -6 0 -23 -15 -37 -32z"></path>
<path d="M3565 5574 c-19 -45 -20 -39 10 -78 73 -96 120 -280 113 -438 l-4
-86 35 -6 c20 -3 40 -1 46 5 6 6 9 62 9 137 -2 138 -22 238 -69 340 -25 53
-102 161 -117 162 -4 0 -15 -16 -23 -36z"></path>
<path d="M4395 5196 c-78 -19 -144 -56 -212 -119 -112 -105 -159 -219 -151
-368 l5 -87 -39 -39 c-96 -93 -176 -226 -220 -363 -20 -67 -23 -94 -22 -245 0
-154 3 -179 27 -265 63 -220 70 -266 70 -430 0 -181 -17 -263 -84 -398 -94
-192 -272 -297 -469 -277 -259 26 -478 170 -550 363 -33 86 -24 130 54 271 81
144 128 249 166 360 44 132 45 126 -25 127 -33 1 -94 5 -135 8 l-75 7 -28 -80
c-32 -91 -96 -224 -156 -326 -65 -109 -85 -186 -79 -308 8 -159 65 -279 193
-408 155 -156 342 -245 587 -279 380 -53 722 202 832 621 63 238 55 478 -24
751 -45 154 -57 283 -37 383 20 98 62 183 120 250 l45 51 -30 29 c-16 17 -46
59 -66 95 l-36 64 3 115 c4 175 37 257 143 357 115 109 261 147 411 108 84
-22 126 -45 194 -108 227 -210 175 -585 -101 -722 -156 -77 -306 -63 -468 42
-30 20 -48 13 -28 -11 20 -24 111 -72 169 -89 70 -20 192 -20 262 0 281 83
420 413 284 673 -101 191 -327 297 -530 247z"></path>
<path d="M2170 4954 c0 -3 13 -16 29 -29 20 -18 38 -54 66 -132 71 -206 191
-431 294 -553 29 -34 32 -35 91 -32 49 2 76 -4 136 -28 97 -39 166 -40 252 -5
40 16 81 25 117 25 30 0 55 5 55 10 0 21 -119 11 -182 -16 -81 -34 -157 -31
-242 10 -52 25 -68 28 -124 23 l-64 -5 -64 87 c-79 106 -197 338 -249 491 -25
73 -48 123 -63 137 -23 21 -52 31 -52 17z"></path>
<path d="M3624 4942 c-22 -17 -54 -72 -54 -92 0 -24 -76 -211 -127 -315 -58
-116 -110 -199 -175 -277 -29 -34 -35 -48 -24 -48 24 0 137 159 200 280 57
109 126 274 146 348 6 24 27 61 47 83 36 39 27 54 -13 21z"></path>
<path d="M2031 4924 c-45 -57 -37 -112 41 -308 46 -117 134 -295 185 -375 44
-70 171 -228 188 -235 7 -2 17 -24 23 -48 19 -74 62 -122 145 -162 75 -37 97
-43 97 -28 0 5 -30 22 -66 37 -82 35 -128 79 -151 146 -12 33 -41 77 -81 123
-35 39 -87 107 -117 151 -116 173 -286 571 -270 633 3 14 15 38 26 53 25 36 7
47 -20 13z"></path>
<path d="M3778 4944 c-4 -4 1 -19 11 -33 33 -48 33 -76 1 -174 -89 -265 -224
-510 -372 -673 -33 -37 -70 -88 -81 -113 -11 -25 -29 -59 -40 -75 -22 -31
-137 -90 -213 -110 -26 -7 -50 -18 -52 -24 -11 -34 213 51 266 101 24 23 62
88 62 107 0 6 28 43 63 83 89 102 143 178 203 283 117 208 222 481 210 547 -7
39 -46 93 -58 81z"></path>
<path d="M4444 4936 c-120 -38 -185 -171 -138 -284 61 -148 261 -179 362 -56
43 52 59 127 42 190 -32 113 -158 184 -266 150z m129 -30 c39 -17 92 -71 106
-109 38 -100 -23 -216 -130 -248 -79 -24 -179 23 -214 100 -26 59 -18 148 19
196 50 66 146 92 219 61z"></path>
<path d="M2706 2250 c-42 -13 -66 -39 -66 -71 0 -43 32 -59 115 -59 73 0 115
-16 101 -38 -5 -8 -57 -12 -165 -12 -158 0 -159 0 -175 25 -24 36 -36 31 -36
-15 0 -43 -5 -47 -34 -25 -29 22 -102 19 -126 -5 -11 -11 -22 -20 -25 -20 -3
0 -14 9 -25 20 -15 15 -33 20 -71 20 -47 0 -50 -2 -47 -22 2 -19 8 -22 36 -20
95 10 112 -90 20 -112 -19 -4 -28 -13 -28 -26 0 -30 51 -26 89 6 l31 26 31
-27 c38 -31 84 -32 84 0 0 13 -9 21 -31 25 -46 10 -54 18 -54 55 0 62 58 73
115 24 l36 -32 -2 -146 c-1 -144 -1 -146 21 -146 21 0 21 3 23 175 l2 175 155
3 c85 1 160 0 168 -3 20 -8 -1 -31 -36 -40 -15 -3 -64 -24 -109 -47 -69 -33
-83 -44 -83 -63 0 -27 24 -55 46 -55 33 0 115 -52 157 -101 30 -34 51 -50 63
-47 18 3 19 17 22 181 l2 178 58 -3 57 -3 3 -178 c2 -178 3 -178 25 -175 22 3
22 6 27 178 l5 175 88 3 c48 1 87 1 87 -1 0 -2 -15 -20 -33 -40 -19 -19 -40
-56 -47 -81 -15 -55 -8 -138 15 -173 36 -55 127 -81 171 -49 29 22 4 41 -49
37 -59 -3 -89 29 -95 103 -6 71 24 136 81 177 40 29 41 29 178 29 76 0 140 -4
143 -9 7 -11 -11 -26 -44 -36 -62 -19 -190 -89 -190 -104 0 -24 29 -61 47 -61
34 0 107 -47 154 -98 79 -86 83 -80 89 128 l5 175 163 3 c136 2 162 0 162 -12
0 -8 -10 -18 -22 -21 -62 -18 -218 -100 -218 -115 0 -28 29 -58 63 -64 48 -9
124 -62 154 -108 18 -26 33 -38 49 -38 l24 0 2 178 3 177 33 3 c24 2 32 8 32
23 0 19 -12 19 -520 19 l-520 0 -11 28 c-30 77 -46 97 -103 126 -48 24 -71 29
-149 32 -51 2 -105 -1 -121 -6z m239 -59 c46 -21 73 -52 77 -91 3 -24 1 -25
-57 -25 -54 0 -60 2 -63 21 -6 43 -38 59 -130 64 -68 4 -87 8 -87 20 0 42 174
49 260 11z m-85 -336 c0 -52 -3 -95 -6 -95 -4 0 -23 15 -43 33 -21 18 -58 42
-84 53 -26 10 -47 22 -47 25 0 7 151 79 168 79 9 0 12 -26 12 -95z m770 -6 l0
-102 -43 40 c-23 21 -64 48 -90 59 -26 10 -47 22 -47 25 0 8 150 78 168 79 9
0 12 -27 12 -101z m380 -1 l-1 -103 -22 26 c-28 33 -93 76 -129 84 -16 4 -28
11 -28 15 0 8 148 78 168 79 9 1 12 -26 12 -101z"></path>
<path d="M920 2051 c0 -10 7 -21 15 -25 8 -3 15 -12 15 -20 0 -8 14 -17 33
-21 54 -12 84 -33 96 -66 17 -48 13 -73 -12 -97 -30 -28 -38 -28 -66 2 -13 14
-29 22 -37 19 -40 -15 23 -83 78 -83 40 0 61 20 110 104 30 50 54 58 81 28 14
-15 17 -41 17 -136 l0 -118 -39 7 c-51 9 -108 -15 -117 -49 -9 -37 4 -64 38
-82 43 -22 94 -12 133 26 l31 31 46 -35 c40 -30 48 -33 58 -21 16 19 2 37 -57
72 l-43 25 0 209 0 210 118 -3 117 -3 -3 -35 c-4 -42 -27 -80 -48 -80 -8 0
-27 12 -41 26 -24 24 -27 24 -42 9 -15 -15 -14 -18 17 -46 45 -41 92 -40 125
2 l24 31 27 -27 c15 -15 26 -28 24 -29 -2 -1 -15 -10 -30 -19 -43 -27 -37 -98
6 -81 9 3 16 14 16 24 0 28 26 43 62 36 41 -8 58 -23 58 -51 0 -42 -35 -60
-110 -59 -50 1 -70 -2 -74 -12 -6 -17 -4 -18 69 -39 33 -9 86 -30 117 -46 56
-27 58 -28 71 -9 7 10 25 22 39 25 14 4 41 19 59 35 33 27 34 30 33 96 0 38
-3 100 -5 138 -4 67 -3 69 29 95 17 15 32 35 32 44 0 16 -41 17 -535 17 -518
0 -535 -1 -535 -19z m328 -70 c3 -39 1 -43 -15 -36 -43 18 -61 17 -84 -6 -12
-12 -24 -19 -26 -13 -13 37 -33 61 -61 76 -19 9 -36 19 -40 22 -3 4 46 5 108
4 l115 -3 3 -44z m461 36 c18 -23 25 -75 11 -92 -16 -20 -60 -19 -89 1 -25 18
-55 79 -46 94 9 15 111 12 124 -3z m191 0 c0 -7 -5 -18 -11 -24 -14 -14 -15
-70 -4 -175 9 -87 3 -102 -52 -124 -24 -11 -30 -18 -26 -34 7 -25 4 -25 -52 2
-42 21 -58 38 -35 38 6 0 22 11 35 25 36 35 33 79 -6 116 -18 16 -30 31 -28
33 2 2 14 8 26 15 26 13 39 65 24 103 -5 14 -7 29 -4 32 4 3 35 6 70 6 45 0
63 -4 63 -13z m-691 -413 c36 -8 40 -27 9 -48 -48 -34 -106 -3 -71 36 18 20
19 20 62 12z"></path>
<path d="M4287 2063 c-4 -3 -7 -12 -7 -19 0 -11 40 -14 183 -16 l182 -3 3 -44
c3 -39 1 -43 -15 -36 -40 17 -74 17 -93 0 -19 -17 -21 -17 -39 -1 -29 26 -91
31 -130 12 -63 -33 -65 -113 -5 -165 38 -34 62 -39 71 -15 4 10 -7 26 -31 45
-43 36 -48 71 -11 95 34 22 75 7 97 -37 22 -42 52 -46 56 -6 5 40 38 54 71 29
24 -18 26 -25 31 -123 5 -96 7 -104 25 -104 19 0 20 8 25 175 l5 175 88 3 c48
1 87 0 87 -3 0 -3 -15 -20 -33 -39 -72 -72 -76 -215 -6 -282 35 -33 113 -44
144 -20 30 22 6 41 -48 37 -59 -3 -89 29 -95 103 -9 110 62 196 168 204 50 4
60 2 69 -15 9 -17 5 -24 -27 -44 -28 -19 -38 -32 -40 -57 -2 -18 2 -39 8 -47
17 -21 40 -7 40 24 0 59 62 70 113 19 29 -29 30 -32 13 -42 -52 -31 -66 -48
-66 -80 0 -40 17 -59 41 -46 11 6 15 17 12 30 -7 28 14 50 48 50 42 0 117 -71
121 -113 2 -24 8 -33 25 -35 22 -3 22 -1 25 115 l3 118 38 -1 c71 -2 107 -73
42 -84 -21 -4 -31 -11 -33 -28 -3 -20 1 -22 37 -22 31 0 44 6 60 26 55 71 -1
144 -119 156 -21 3 -25 8 -25 38 l0 35 139 3 c129 2 138 1 131 -15 -28 -67
-28 -72 -15 -158 16 -106 9 -133 -43 -158 -38 -19 -48 -43 -23 -53 19 -7 65
17 96 51 28 30 30 63 15 207 l-8 78 37 35 c21 19 34 39 31 45 -7 11 -1457 15
-1468 3z m944 -73 c8 -37 40 -70 68 -70 29 0 41 -22 41 -74 l0 -49 -22 20
c-13 11 -32 25 -43 31 -11 6 -29 27 -40 48 -11 21 -39 51 -62 67 -27 17 -43
36 -43 48 0 18 6 20 47 17 45 -3 48 -5 54 -38z m107 3 c3 -28 0 -33 -17 -33
-23 0 -56 43 -46 60 4 6 19 10 33 8 22 -2 28 -9 30 -35z"></path>
<path d="M5807 1744 c-12 -13 -8 -61 7 -73 26 -21 58 4 54 42 -2 26 -8 33 -28
35 -14 2 -29 0 -33 -4z"></path>
<path d="M5982 1738 c-34 -34 6 -90 48 -68 35 19 20 80 -20 80 -9 0 -21 -5
-28 -12z"></path>
<path d="M6157 1743 c-12 -12 -7 -60 7 -72 35 -29 76 35 44 67 -13 13 -41 16
-51 5z"></path>
<path d="M2674 1726 c-12 -31 0 -51 31 -51 27 0 30 3 30 30 0 25 -4 30 -28 33
-17 2 -29 -2 -33 -12z"></path>
<path d="M3444 1726 c-12 -31 0 -51 31 -51 27 0 30 3 30 30 0 25 -4 30 -28 33
-17 2 -29 -2 -33 -12z"></path>
<path d="M3823 1724 c-9 -24 10 -49 37 -49 31 0 48 28 31 49 -17 21 -60 21
-68 0z"></path>
<path d="M3135 1201 c-53 -24 -111 -90 -125 -142 -28 -101 25 -237 136 -358
58 -62 244 -214 280 -228 23 -9 166 98 270 202 75 75 109 116 132 165 36 75
49 157 33 216 -14 52 -62 119 -91 127 -17 4 -13 -3 19 -38 101 -110 70 -273
-82 -428 -68 -69 -177 -161 -240 -200 -36 -23 -48 -17 -213 115 -153 123 -246
279 -228 388 10 69 14 79 40 110 46 54 97 73 178 67 61 -4 68 -3 51 9 -26 20
-112 17 -160 -5z"></path>
<path d="M3563 1200 c-23 -11 -58 -40 -77 -64 -38 -45 -43 -56 -26 -56 6 0 10
6 10 14 0 23 89 95 127 102 19 4 60 4 90 1 42 -4 53 -3 45 5 -22 22 -123 20
-169 -2z"></path>
<path d="M3360 1146 c24 -25 46 -46 47 -46 2 0 -3 13 -12 30 -8 16 -30 37 -48
46 -31 16 -31 15 13 -30z"></path>
</g>
</svg>